<svg width="87" height="27" xmlns="http://www.w3.org/2000/svg"><path d="M9.727 4.73c-3.629 0-6.65 2.964-6.65 6.536 0 1.729.533 3.211 1.596 4.389 1.255 1.387 3.136 2.242 4.96 2.242 3.705 0 6.688-2.926 6.688-6.574 0-3.629-2.965-6.593-6.594-6.593zM9.71 6.535c2.66 0 4.693 2.09 4.693 4.788 0 2.679-2.071 4.769-4.75 4.769-1.16 0-2.356-.494-3.25-1.349-.95-.912-1.405-2.033-1.405-3.458 0-2.66 2.09-4.75 4.712-4.75zm13.3 5.719c1.69-.361 2.811-1.786 2.811-3.553 0-1.216-.588-2.356-1.52-2.983-.797-.532-1.71-.741-3.344-.741h-2.241V17.65h1.919v-5.187h.341l3.61 5.187h2.337zm-2.375-1.463V6.782h.683c.893 0 1.445.133 1.9.437.457.323.742.893.742 1.501 0 .665-.305 1.273-.799 1.615-.436.304-1.064.456-1.919.456zm14.706.266v1.805h3.153c-.17 1.786-1.88 3.23-3.78 3.23-1.065 0-2.185-.456-3.079-1.273-1.006-.893-1.52-2.071-1.52-3.477 0-2.717 2.052-4.807 4.732-4.807 1.539 0 2.717.646 3.8 2.09l1.367-1.311c-.588-.684-.93-1.007-1.405-1.349a6.4 6.4 0 0 0-3.8-1.235 6.569 6.569 0 0 0-6.613 6.612c0 3.61 2.907 6.555 6.46 6.555 1.9 0 3.706-.893 4.807-2.394.78-1.064 1.121-2.204 1.121-3.857v-.589zm15.066 3.515l1.33 3.078h2.09L47.785 4.179l-6.27 13.471h2.051l1.425-3.078zm-.779-1.805H45.79l1.957-4.294zm5.795 4.883h1.92V8.777l9.234 9.652V4.977h-1.92v8.797l-9.234-9.652zM71.534 4.977h-1.919V17.65h1.92zm12.407.684c-1.14-.665-2.07-.931-3.306-.931-3.705 0-6.688 2.964-6.688 6.65 0 3.61 2.927 6.517 6.555 6.517 1.236 0 2.319-.304 3.44-.95v-2.299c-1.254 1.045-2.166 1.444-3.42 1.444-2.623 0-4.656-2.071-4.656-4.731 0-2.698 2.052-4.826 4.636-4.826 1.273 0 2.243.399 3.44 1.387z"/></svg>