<svg width="189" height="27" xmlns="http://www.w3.org/2000/svg"><path d="M30.357 6.554a5.546 5.546 0 0 0-3.724-1.406c-2.28 0-3.953 1.558-3.953 3.686 0 1.672.837 2.584 3.117 3.42 1.026.38 1.52.589 1.767.76.456.323.683.76.683 1.273 0 1.045-.817 1.786-1.956 1.786-1.14 0-2.09-.608-2.66-1.691l-1.596 1.539c1.14 1.653 2.508 2.413 4.35 2.413 2.622 0 4.409-1.691 4.409-4.18 0-1.121-.38-2.033-1.122-2.66-.57-.494-1.14-.76-2.527-1.273-1.482-.551-1.918-.912-1.918-1.596 0-.779.779-1.406 1.785-1.406.799 0 1.387.285 2.052 1.026zm8.092 3.705V5.357h-2.47V18.03h2.47v-5.624h5.358v5.624h2.47V5.357h-2.47v4.902zm19.89-5.187c-3.761 0-6.801 2.926-6.801 6.536 0 3.8 2.907 6.707 6.707 6.707 3.857 0 6.84-2.869 6.84-6.612 0-3.724-2.964-6.631-6.745-6.631zm-.038 2.261c2.356 0 4.237 1.938 4.237 4.351 0 2.413-1.9 4.37-4.217 4.37-2.356 0-4.237-1.957-4.237-4.408 0-2.356 1.918-4.313 4.217-4.313zm14.534 6.004h1.596c1.5 0 2.526-.361 3.249-1.121.645-.703 1.025-1.729 1.025-2.831 0-1.216-.474-2.318-1.291-3.059-.799-.703-1.692-.969-3.344-.969h-3.705V18.03h2.47zm0-2.147V7.504h.855c.912 0 1.444.114 1.823.399.4.304.646.855.646 1.463 0 1.216-.779 1.824-2.318 1.824zm18.445 6.84h2.47V9.461l7.713 8.816h1.71V5.357h-2.47v8.531L92.99 5.072h-1.71zm23.957-12.958c-3.762 0-6.802 2.926-6.802 6.536 0 3.8 2.906 6.707 6.706 6.707 3.858 0 6.84-2.869 6.84-6.612 0-3.724-2.963-6.631-6.744-6.631zm-.038 2.261c2.356 0 4.237 1.938 4.237 4.351 0 2.413-1.9 4.37-4.219 4.37-2.355 0-4.236-1.957-4.236-4.408 0-2.356 1.919-4.313 4.218-4.313zm13.222-1.976h-2.603l4.484 12.92h1.728l2.964-8.284 2.813 8.284h1.729l4.768-12.92h-2.602l-3.04 8.626-2.946-8.74h-1.349l-3.096 8.74zm27.299 11.571l8.226-4.199v-2.071l-8.226-4.199v2.432l5.624 2.793-5.624 2.793z"/></svg>