<svg width="430" height="71" xmlns="http://www.w3.org/2000/svg"><path d="M31.796-.004H29.24V26.24h2.556zm17.928 19.296v-.432c0-4.752-2.808-7.884-7.128-7.884-4.284 0-7.236 3.204-7.236 7.884 0 4.608 3.024 7.812 7.344 7.812 3.024 0 5.22-1.332 6.876-4.248L47.42 21.2c-1.44 2.304-2.628 3.132-4.608 3.132-2.7 0-4.608-1.98-4.752-5.04zm-11.484-2.16c.36-2.232 2.232-3.852 4.392-3.852 2.196 0 3.924 1.512 4.392 3.852zM67.148 11.3h-2.556v2.124c-1.368-1.692-3.024-2.484-5.148-2.484-4.176 0-7.236 3.348-7.236 7.884 0 4.464 3.06 7.812 7.128 7.812 2.016 0 3.78-.828 5.256-2.448v2.16c0 1.836-.288 3.096-.972 4.032-.792 1.152-2.196 1.836-3.816 1.836-1.728 0-3.312-.756-4.068-1.98-.432-.684-.612-1.26-.72-2.52h-2.52c.144 4.176 2.952 6.84 7.236 6.84 2.484 0 4.644-1.008 5.976-2.772 1.08-1.44 1.44-2.88 1.44-5.868zm-7.416 1.944c1.188 0 2.412.468 3.348 1.296 1.116 1.008 1.62 2.376 1.62 4.284 0 3.24-2.088 5.508-5.004 5.508-2.844 0-4.86-2.268-4.86-5.544 0-3.204 2.052-5.544 4.896-5.544zm25.344 6.048v-.432c0-4.752-2.808-7.884-7.128-7.884-4.284 0-7.236 3.204-7.236 7.884 0 4.608 3.024 7.812 7.344 7.812 3.024 0 5.22-1.332 6.876-4.248l-2.16-1.224c-1.44 2.304-2.628 3.132-4.608 3.132-2.7 0-4.608-1.98-4.752-5.04zm-11.484-2.16c.36-2.232 2.232-3.852 4.392-3.852 2.196 0 3.924 1.512 4.392 3.852zM88.604 11.3v14.94h2.556v-7.452c0-3.888 1.116-5.544 3.708-5.544 1.224 0 2.196.468 2.664 1.26.396.612.504 1.332.504 2.916v8.82h2.556v-9.252c0-1.944-.252-3.06-.828-3.996-.828-1.26-2.484-2.052-4.284-2.052-1.872 0-3.024.576-4.32 2.16v-1.8zM116.54-.004v13.428c-1.476-1.692-3.096-2.448-5.22-2.448-4.104 0-7.128 3.276-7.128 7.776 0 4.572 3.06 7.92 7.2 7.92 2.124 0 3.888-.864 5.112-2.484v2.052h2.592V-.004zm-4.788 13.32c1.224 0 2.484.504 3.42 1.368 1.044.936 1.512 2.232 1.512 4.068 0 3.348-1.98 5.58-4.968 5.58-2.844 0-4.896-2.376-4.896-5.652 0-3.024 2.124-5.364 4.932-5.364zm23.256-2.016v2.124c-1.476-1.728-3.06-2.484-5.22-2.484-4.104 0-7.128 3.276-7.128 7.776 0 4.608 3.024 7.956 7.2 7.956 2.124 0 3.708-.792 5.148-2.52v2.088h2.556V11.3zm-4.788 1.98c2.916 0 4.968 2.232 4.968 5.472 0 3.276-2.052 5.58-5.004 5.58-2.844 0-4.896-2.376-4.896-5.652 0-3.06 2.124-5.4 4.932-5.4zm11.916-1.98v14.94h2.556v-7.884c0-1.8.18-2.88.576-3.6.432-.828 1.404-1.368 2.376-1.368.54 0 .864.108 1.512.504l1.188-2.304c-.9-.504-1.44-.648-2.268-.648-1.404 0-2.052.396-3.384 1.98V11.3zm14.868 13.536l-4.824 9.828h2.88L166.112 11.3h-2.916l-4.824 10.692L153.08 11.3h-2.952zm31.752 9.828h2.556V11.3h-2.592v2.124c-1.224-1.62-2.988-2.484-5.112-2.484-4.176 0-7.2 3.348-7.2 7.92 0 4.5 3.024 7.812 7.128 7.812 2.124 0 3.744-.792 5.22-2.52zm-4.788-21.384c2.952 0 4.932 2.268 4.932 5.58 0 1.548-.396 2.88-1.116 3.708a5.116 5.116 0 0 1-3.852 1.764c-2.844 0-4.896-2.34-4.896-5.58 0-3.132 2.124-5.472 4.932-5.472zm14.472-1.98h-2.556v9c0 2.196.36 3.384 1.368 4.5 1.08 1.224 2.7 1.872 4.572 1.872 1.836 0 3.456-.648 4.536-1.872 1.008-1.116 1.368-2.304 1.368-4.5v-9h-2.556v8.712c0 1.404-.144 2.16-.468 2.808-.504.936-1.62 1.512-2.88 1.512-1.296 0-2.412-.576-2.916-1.512-.324-.648-.468-1.404-.468-2.808zm25.236 0v2.124c-1.476-1.728-3.06-2.484-5.22-2.484-4.104 0-7.128 3.276-7.128 7.776 0 4.608 3.024 7.956 7.2 7.956 2.124 0 3.708-.792 5.148-2.52v2.088h2.556V11.3zm-4.788 1.98c2.916 0 4.968 2.232 4.968 5.472 0 3.276-2.052 5.58-5.004 5.58-2.844 0-4.896-2.376-4.896-5.652 0-3.06 2.124-5.4 4.932-5.4zM233.36-.004h-2.556V26.24h2.556zm7.164 11.304h-2.556v14.94h2.556zm-1.26-7.488c-1.008 0-1.836.828-1.836 1.8 0 1.044.828 1.872 1.836 1.872a1.844 1.844 0 0 0 1.836-1.836 1.844 1.844 0 0 0-1.836-1.836zm8.676 9.864h2.664V11.3h-2.664V5.9h-2.556v5.4h-1.548v2.376h1.548V26.24h2.556zm9.684 11.16l-4.824 9.828h2.88L266.732 11.3h-2.916l-4.824 10.692L253.7 11.3h-2.952zm12.96-2.124l-2.988 8.316 1.728.684 3.6-8.136zm23.832-9.036c-.936-1.836-2.268-2.7-4.104-2.7-2.484 0-4.356 1.8-4.356 4.176 0 1.98.864 2.844 4.32 4.356 1.872.792 2.412 1.332 2.412 2.484 0 1.332-1.044 2.34-2.448 2.34s-2.124-.612-2.988-2.412l-2.268.936c.972 2.52 2.736 3.816 5.22 3.816 2.916 0 5.112-2.088 5.112-4.86 0-1.404-.576-2.484-1.656-3.276-.684-.504-1.116-.72-2.844-1.44-1.908-.792-2.412-1.26-2.412-2.124 0-.9.828-1.656 1.8-1.656.9 0 1.548.468 2.088 1.476zm15.768-2.376v2.124c-1.476-1.728-3.06-2.484-5.22-2.484-4.104 0-7.128 3.276-7.128 7.776 0 4.608 3.024 7.956 7.2 7.956 2.124 0 3.708-.792 5.148-2.52v2.088h2.556V11.3zm-4.788 1.98c2.916 0 4.968 2.232 4.968 5.472 0 3.276-2.052 5.58-5.004 5.58-2.844 0-4.896-2.376-4.896-5.652 0-3.06 2.124-5.4 4.932-5.4zm14.688.396h3.78V11.3h-3.78V5.54c0-2.7.432-3.42 2.052-3.42.576 0 .972.072 1.728.36V-.112c-.828-.252-1.224-.324-1.872-.324-1.548 0-2.808.54-3.6 1.584-.612.792-.864 1.98-.864 3.78V11.3h-1.404v2.376h1.404V26.24h2.556zm19.224 5.616v-.432c0-4.752-2.808-7.884-7.128-7.884-4.284 0-7.236 3.204-7.236 7.884 0 4.608 3.024 7.812 7.344 7.812 3.024 0 5.22-1.332 6.876-4.248l-2.16-1.224c-1.44 2.304-2.628 3.132-4.608 3.132-2.7 0-4.608-1.98-4.752-5.04zm-11.484-2.16c.36-2.232 2.232-3.852 4.392-3.852 2.196 0 3.924 1.512 4.392 3.852zm35.352-5.832v2.124c-1.476-1.728-3.06-2.484-5.22-2.484-4.104 0-7.128 3.276-7.128 7.776 0 4.608 3.024 7.956 7.2 7.956 2.124 0 3.708-.792 5.148-2.52v2.088h2.556V11.3zm-4.788 1.98c2.916 0 4.968 2.232 4.968 5.472 0 3.276-2.052 5.58-5.004 5.58-2.844 0-4.896-2.376-4.896-5.652 0-3.06 2.124-5.4 4.932-5.4zm11.916-1.98v14.94h2.556v-7.452c0-3.888 1.116-5.544 3.708-5.544 1.224 0 2.196.468 2.664 1.26.396.612.504 1.332.504 2.916v8.82h2.556v-9.252c0-1.944-.252-3.06-.828-3.996-.828-1.26-2.484-2.052-4.284-2.052-1.872 0-3.024.576-4.32 2.16v-1.8zM398.24-.004v13.428c-1.476-1.692-3.096-2.448-5.22-2.448-4.104 0-7.128 3.276-7.128 7.776 0 4.572 3.06 7.92 7.2 7.92 2.124 0 3.888-.864 5.112-2.484v2.052h2.592V-.004zm-4.788 13.32c1.224 0 2.484.504 3.42 1.368 1.044.936 1.512 2.232 1.512 4.068 0 3.348-1.98 5.58-4.968 5.58-2.844 0-4.896-2.376-4.896-5.652 0-3.024 2.124-5.364 4.932-5.364zM71.486 49.676c-.936-1.836-2.268-2.7-4.104-2.7-2.484 0-4.356 1.8-4.356 4.176 0 1.98.864 2.844 4.32 4.356 1.872.792 2.412 1.332 2.412 2.484 0 1.332-1.044 2.34-2.448 2.34s-2.124-.612-2.988-2.412l-2.268.936c.972 2.52 2.736 3.816 5.22 3.816 2.916 0 5.112-2.088 5.112-4.86 0-1.404-.576-2.484-1.656-3.276-.684-.504-1.116-.72-2.844-1.44-1.908-.792-2.412-1.26-2.412-2.124 0-.9.828-1.656 1.8-1.656.9 0 1.548.468 2.088 1.476zm11.304-2.7c-4.356 0-7.92 3.456-7.92 7.704 0 4.5 3.42 7.992 7.848 7.992 4.5 0 7.956-3.42 7.956-7.848s-3.456-7.848-7.884-7.848zm-.036 2.34c3.06 0 5.292 2.304 5.292 5.508 0 3.24-2.232 5.508-5.328 5.508-3.06 0-5.22-2.34-5.22-5.58 0-3.096 2.232-5.436 5.256-5.436zm14.22.36h3.78V47.3h-3.78v-5.76c0-2.7.432-3.42 2.052-3.42.576 0 .972.072 1.728.36v-2.592c-.828-.252-1.224-.324-1.872-.324-1.548 0-2.808.54-3.6 1.584-.612.792-.864 1.98-.864 3.78V47.3h-1.404v2.376h1.404V62.24h2.556zm8.676 0h2.664V47.3h-2.664v-5.4h-2.556v5.4h-1.548v2.376h1.548V62.24h2.556zm14.076-2.376v14.94h2.556v-7.452c0-3.888 1.116-5.544 3.708-5.544 1.224 0 2.196.468 2.664 1.26.396.612.504 1.332.504 2.916v8.82h2.556v-9.252c0-1.944-.252-3.06-.828-3.996-.828-1.26-2.484-2.052-4.284-2.052-1.872 0-3.024.576-4.32 2.16v-1.8zm29.916 7.992v-.432c0-4.752-2.808-7.884-7.128-7.884-4.284 0-7.236 3.204-7.236 7.884 0 4.608 3.024 7.812 7.344 7.812 3.024 0 5.22-1.332 6.876-4.248l-2.16-1.224c-1.44 2.304-2.628 3.132-4.608 3.132-2.7 0-4.608-1.98-4.752-5.04zm-11.484-2.16c.36-2.232 2.232-3.852 4.392-3.852 2.196 0 3.924 1.512 4.392 3.852zm19.152 1.152l-6.372 7.956h3.204l4.752-6.084 4.716 6.084h3.096l-6.192-7.956 5.472-6.984h-3.168l-3.924 5.076-3.888-5.076h-3.132zm14.652-4.608h2.664V47.3h-2.664v-5.4h-2.556v5.4h-1.548v2.376h1.548V62.24h2.556zm16.848 0h2.664V47.3h-2.664v-5.4h-2.556v5.4h-1.548v2.376h1.548V62.24h2.556zm11.952-2.7c-4.356 0-7.92 3.456-7.92 7.704 0 4.5 3.42 7.992 7.848 7.992 4.5 0 7.956-3.42 7.956-7.848s-3.456-7.848-7.884-7.848zm-.036 2.34c3.06 0 5.292 2.304 5.292 5.508 0 3.24-2.232 5.508-5.328 5.508-3.06 0-5.22-2.34-5.22-5.58 0-3.096 2.232-5.436 5.256-5.436zm23.004-13.32h-2.556V62.24h2.556v-2.052c1.404 1.692 3.06 2.484 5.148 2.484 4.14 0 7.2-3.348 7.2-7.92 0-4.5-3.024-7.776-7.128-7.776-2.16 0-3.744.756-5.22 2.448zm4.824 13.32c2.844 0 4.896 2.34 4.896 5.544 0 3.132-2.124 5.472-4.932 5.472-2.916 0-4.968-2.304-4.968-5.544 0-3.276 2.052-5.472 5.004-5.472zm22.428-2.016v2.124c-1.476-1.728-3.06-2.484-5.22-2.484-4.104 0-7.128 3.276-7.128 7.776 0 4.608 3.024 7.956 7.2 7.956 2.124 0 3.708-.792 5.148-2.52v2.088h2.556V47.3zm-4.788 1.98c2.916 0 4.968 2.232 4.968 5.472 0 3.276-2.052 5.58-5.004 5.58-2.844 0-4.896-2.376-4.896-5.652 0-3.06 2.124-5.4 4.932-5.4zm14.472-13.284h-2.556V62.24h2.556v-2.052c1.404 1.692 3.06 2.484 5.148 2.484 4.14 0 7.2-3.348 7.2-7.92 0-4.5-3.024-7.776-7.128-7.776-2.16 0-3.744.756-5.22 2.448zm4.824 13.32c2.844 0 4.896 2.34 4.896 5.544 0 3.132-2.124 5.472-4.932 5.472-2.916 0-4.968-2.304-4.968-5.544 0-3.276 2.052-5.472 5.004-5.472zm15.696 11.52l-4.824 9.828h2.88L290.294 47.3h-2.916l-4.824 10.692-5.292-10.692h-2.952zm12.996-12.96l.504-9.648h-2.916l.468 9.648zm12.492 1.8c-.936-1.836-2.268-2.7-4.104-2.7-2.484 0-4.356 1.8-4.356 4.176 0 1.98.864 2.844 4.32 4.356 1.872.792 2.412 1.332 2.412 2.484 0 1.332-1.044 2.34-2.448 2.34s-2.124-.612-2.988-2.412l-2.268.936c.972 2.52 2.736 3.816 5.22 3.816 2.916 0 5.112-2.088 5.112-4.86 0-1.404-.576-2.484-1.656-3.276-.684-.504-1.116-.72-2.844-1.44-1.908-.792-2.412-1.26-2.412-2.124 0-.9.828-1.656 1.8-1.656.9 0 1.548.468 2.088 1.476zm21.636 0c-.936-1.836-2.268-2.7-4.104-2.7-2.484 0-4.356 1.8-4.356 4.176 0 1.98.864 2.844 4.32 4.356 1.872.792 2.412 1.332 2.412 2.484 0 1.332-1.044 2.34-2.448 2.34s-2.124-.612-2.988-2.412l-2.268.936c.972 2.52 2.736 3.816 5.22 3.816 2.916 0 5.112-2.088 5.112-4.86 0-1.404-.576-2.484-1.656-3.276-.684-.504-1.116-.72-2.844-1.44-1.908-.792-2.412-1.26-2.412-2.124 0-.9.828-1.656 1.8-1.656.9 0 1.548.468 2.088 1.476zm6.984-13.68h-2.556V62.24h2.556v-6.156l.648-.648 6.012 6.804h3.384l-7.596-8.568 6.372-6.372h-3.42l-5.4 5.508zM350.09 47.3h-2.556v14.94h2.556zm-1.26-7.488c-1.008 0-1.836.828-1.836 1.8 0 1.044.828 1.872 1.836 1.872a1.844 1.844 0 0 0 1.836-1.836 1.844 1.844 0 0 0-1.836-1.836zm5.904 7.488v14.94h2.556v-7.452c0-3.888 1.116-5.544 3.708-5.544 1.224 0 2.196.468 2.664 1.26.396.612.504 1.332.504 2.916v8.82h2.556v-9.252c0-1.944-.252-3.06-.828-3.996-.828-1.26-2.484-2.052-4.284-2.052-1.872 0-3.024.576-4.32 2.16v-1.8z"/></svg>