<svg width="149" height="38" xmlns="http://www.w3.org/2000/svg"><path d="M16.74 24.166l4.408-4.674c3.23-3.42 4.598-6.042 4.598-8.854 0-4.712-3.8-8.17-8.93-8.17s-8.55 3.306-8.892 8.55h5.282c.114-2.622 1.482-4.18 3.762-4.18 2.128 0 3.838 1.672 3.838 3.838 0 2.128-1.216 4.066-5.814 9.31L7.506 28.46h18.43v-4.294zM39.198 2.468c-2.774 0-5.358 1.406-7.22 3.876-1.71 2.318-2.622 5.548-2.622 9.234 0 4.142.836 7.144 2.622 9.652 1.786 2.47 4.408 3.876 7.22 3.876 2.774 0 5.396-1.444 7.182-3.876 1.748-2.47 2.622-5.548 2.622-9.462 0-3.914-.874-6.992-2.622-9.424-1.824-2.47-4.408-3.876-7.182-3.876zm0 4.37c2.85 0 4.864 3.724 4.864 8.93 0 5.244-2.014 8.968-4.864 8.968-2.888 0-4.902-3.724-4.902-9.082 0-5.092 2.052-8.816 4.902-8.816zM57.552 2.81c-3.686 0-6.46 2.546-6.46 5.928 0 3.534 2.66 6.08 6.384 6.08 3.762 0 6.498-2.546 6.498-6.042 0-3.42-2.736-5.966-6.422-5.966zm-.038 2.736c1.824 0 3.306 1.482 3.306 3.268 0 1.824-1.482 3.306-3.268 3.306-1.824 0-3.306-1.482-3.306-3.344 0-1.748 1.482-3.23 3.268-3.23zm13.68-3.268L56.108 28.346l2.014 1.178L73.208 3.418zm.684 14.592c-3.686 0-6.46 2.546-6.46 5.89 0 3.534 2.66 6.08 6.384 6.08s6.46-2.546 6.46-6.004c0-3.42-2.736-5.966-6.384-5.966zm-.038 2.698a3.268 3.268 0 0 1 3.268 3.268c0 1.824-1.482 3.306-3.268 3.306-1.824 0-3.268-1.482-3.268-3.344 0-1.748 1.482-3.23 3.268-3.23zm27.854-8.094c-5.51 0-9.462 3.61-9.462 8.626 0 5.282 3.8 8.892 9.31 8.892 5.624 0 9.5-3.572 9.5-8.778 0-5.168-3.838-8.74-9.348-8.74zm-.076 4.142c2.584 0 4.674 2.052 4.674 4.636 0 2.546-2.09 4.598-4.636 4.598-2.622 0-4.674-2.052-4.674-4.674 0-2.47 2.128-4.56 4.636-4.56zm17.708.38h4.218v-3.99h-4.218V7.408c0-1.292.076-1.976.342-2.546.266-.722.988-1.178 1.786-1.178.608 0 1.102.152 2.09.608V.112c-.988-.456-1.52-.57-2.432-.57-1.824 0-3.61.798-4.864 2.166-1.102 1.254-1.52 2.584-1.52 5.016v5.282h-1.786v3.99h1.786V28.46h4.598zm11.134 0h4.218v-3.99h-4.218V7.408c0-1.292.076-1.976.342-2.546.266-.722.988-1.178 1.786-1.178.608 0 1.102.152 2.09.608V.112c-.988-.456-1.52-.57-2.432-.57-1.824 0-3.61.798-4.864 2.166-1.102 1.254-1.52 2.584-1.52 5.016v5.282h-1.786v3.99h1.786V28.46h4.598z"/></svg>