<svg width="269" height="38" xmlns="http://www.w3.org/2000/svg"><path d="M7.296 26.218L2.204 36.592h3.04L16.91 11.93h-3.078L8.74 23.216 3.154 11.93H.038zM26.6 11.588c-4.598 0-8.36 3.648-8.36 8.132 0 4.75 3.61 8.436 8.284 8.436 4.75 0 8.398-3.61 8.398-8.284 0-4.674-3.648-8.284-8.322-8.284zm-.038 2.47c3.23 0 5.586 2.432 5.586 5.814 0 3.42-2.356 5.814-5.624 5.814-3.23 0-5.51-2.47-5.51-5.89 0-3.268 2.356-5.738 5.548-5.738zm14.782-2.128h-2.698v9.5c0 2.318.38 3.572 1.444 4.75 1.14 1.292 2.85 1.976 4.826 1.976 1.938 0 3.648-.684 4.788-1.976 1.064-1.178 1.444-2.432 1.444-4.75v-9.5H48.45v9.196c0 1.482-.152 2.28-.494 2.964-.532.988-1.71 1.596-3.04 1.596-1.368 0-2.546-.608-3.078-1.596-.342-.684-.494-1.482-.494-2.964zm14.668 0V27.7h2.698v-8.322c0-1.9.19-3.04.608-3.8.456-.874 1.482-1.444 2.508-1.444.57 0 .912.114 1.596.532l1.254-2.432c-.95-.532-1.52-.684-2.394-.684-1.482 0-2.166.418-3.572 2.09v-1.71zm23.256 2.508h3.99V11.93h-3.99V5.85c0-2.85.456-3.61 2.166-3.61.608 0 1.026.076 1.824.38V-.116c-.874-.266-1.292-.342-1.976-.342-1.634 0-2.964.57-3.8 1.672-.646.836-.912 2.09-.912 3.99v6.726h-1.482v2.508h1.482V27.7h2.698zm8.93-2.508H85.5V27.7h2.698zm-1.33-7.904c-1.064 0-1.938.874-1.938 1.9 0 1.102.874 1.976 1.938 1.976a1.946 1.946 0 0 0 1.938-1.938 1.946 1.946 0 0 0-1.938-1.938zM93.1 11.93V27.7h2.698v-8.322c0-1.9.19-3.04.608-3.8.456-.874 1.482-1.444 2.508-1.444.57 0 .912.114 1.596.532l1.254-2.432c-.95-.532-1.52-.684-2.394-.684-1.482 0-2.166.418-3.572 2.09v-1.71zm19.494 2.508c-.988-1.938-2.394-2.85-4.332-2.85-2.622 0-4.598 1.9-4.598 4.408 0 2.09.912 3.002 4.56 4.598 1.976.836 2.546 1.406 2.546 2.622 0 1.406-1.102 2.47-2.584 2.47s-2.242-.646-3.154-2.546l-2.394.988c1.026 2.66 2.888 4.028 5.51 4.028 3.078 0 5.396-2.204 5.396-5.13 0-1.482-.608-2.622-1.748-3.458-.722-.532-1.178-.76-3.002-1.52-2.014-.836-2.546-1.33-2.546-2.242 0-.95.874-1.748 1.9-1.748.95 0 1.634.494 2.204 1.558zm7.6 0h2.812V11.93h-2.812v-5.7h-2.698v5.7h-1.634v2.508h1.634V27.7h2.698zm17.556 22.154V25.496c1.558 1.862 3.268 2.66 5.51 2.66 4.332 0 7.524-3.496 7.524-8.246 0-4.826-3.192-8.36-7.6-8.36-2.204 0-3.914.798-5.434 2.622V11.93h-2.698v24.662zm5.092-22.572c3.002 0 5.168 2.508 5.168 5.966 0 3.23-2.242 5.7-5.168 5.7-3.078 0-5.282-2.394-5.282-5.776 0-3.458 2.204-5.89 5.282-5.89zm14.402-2.09h-2.698v9.5c0 2.318.38 3.572 1.444 4.75 1.14 1.292 2.85 1.976 4.826 1.976 1.938 0 3.648-.684 4.788-1.976 1.064-1.178 1.444-2.432 1.444-4.75v-9.5h-2.698v9.196c0 1.482-.152 2.28-.494 2.964-.532.988-1.71 1.596-3.04 1.596-1.368 0-2.546-.608-3.078-1.596-.342-.684-.494-1.482-.494-2.964zm14.668 0V27.7h2.698v-8.322c0-1.9.19-3.04.608-3.8.456-.874 1.482-1.444 2.508-1.444.57 0 .912.114 1.596.532l1.254-2.432c-.95-.532-1.52-.684-2.394-.684-1.482 0-2.166.418-3.572 2.09v-1.71zm23.028 1.14c-1.634-1.064-3.04-1.482-4.902-1.482-4.75 0-8.398 3.61-8.398 8.322 0 4.636 3.648 8.246 8.36 8.246 1.824 0 3.116-.418 5.054-1.634V22.95c-1.786 2.014-3.154 2.736-5.13 2.736-3.116 0-5.51-2.508-5.51-5.814s2.394-5.814 5.586-5.814c1.9 0 3.192.684 4.94 2.584zm3.876-13.072V27.7h2.698v-7.866c0-1.862.19-3.002.646-3.914.57-1.178 1.786-1.862 3.344-1.862 2.318 0 3.268 1.178 3.268 4.066V27.7h2.698v-9.766c0-2.052-.266-3.192-.912-4.18-.874-1.33-2.622-2.166-4.522-2.166-1.9 0-3.192.608-4.522 2.204V-.002zm29.488 11.932v2.242c-1.558-1.824-3.23-2.622-5.51-2.622-4.332 0-7.524 3.458-7.524 8.208 0 4.864 3.192 8.398 7.6 8.398 2.242 0 3.914-.836 5.434-2.66V27.7h2.698V11.93zm-5.054 2.09c3.078 0 5.244 2.356 5.244 5.776 0 3.458-2.166 5.89-5.282 5.89-3.002 0-5.168-2.508-5.168-5.966 0-3.23 2.242-5.7 5.206-5.7zm21.242.418c-.988-1.938-2.394-2.85-4.332-2.85-2.622 0-4.598 1.9-4.598 4.408 0 2.09.912 3.002 4.56 4.598 1.976.836 2.546 1.406 2.546 2.622 0 1.406-1.102 2.47-2.584 2.47s-2.242-.646-3.154-2.546l-2.394.988c1.026 2.66 2.888 4.028 5.51 4.028 3.078 0 5.396-2.204 5.396-5.13 0-1.482-.608-2.622-1.748-3.458-.722-.532-1.178-.76-3.002-1.52-2.014-.836-2.546-1.33-2.546-2.242 0-.95.874-1.748 1.9-1.748.95 0 1.634.494 2.204 1.558zm18.734 5.928v-.456c0-5.016-2.964-8.322-7.524-8.322-4.522 0-7.638 3.382-7.638 8.322 0 4.864 3.192 8.246 7.752 8.246 3.192 0 5.51-1.406 7.258-4.484l-2.28-1.292c-1.52 2.432-2.774 3.306-4.864 3.306-2.85 0-4.864-2.09-5.016-5.32zm-12.122-2.28c.38-2.356 2.356-4.066 4.636-4.066 2.318 0 4.142 1.596 4.636 4.066z"/></svg>