<svg width="97" height="27" xmlns="http://www.w3.org/2000/svg"><path d="M11.032 6.858c-.855-1.482-1.9-2.128-3.42-2.128-2.166 0-3.8 1.444-3.8 3.363 0 1.425.836 2.47 2.603 3.211 1.71.722 1.71.722 2.147 1.007.57.399.874.95.874 1.672 0 1.216-.874 2.109-2.071 2.109-.779 0-1.501-.38-1.824-.988-.19-.323-.266-.627-.361-1.387l-1.938.437c.133.95.323 1.444.741 2.052.741 1.083 1.919 1.691 3.306 1.691 2.337 0 4.066-1.729 4.066-4.047 0-1.748-.912-2.888-2.964-3.743-1.672-.684-1.672-.684-2.033-.931-.418-.285-.608-.646-.608-1.064 0-.893.798-1.577 1.843-1.577.874 0 1.311.285 1.9 1.254zm4.541-1.881h-1.919v8.151c0 1.235.304 2.147.969 2.983a4.786 4.786 0 0 0 3.724 1.786c1.425 0 2.831-.665 3.705-1.786.665-.836.969-1.767.969-2.983V4.977h-1.919v7.638c0 1.121-.095 1.653-.399 2.185-.456.798-1.368 1.292-2.356 1.292-1.007 0-1.919-.494-2.375-1.292-.304-.532-.399-1.064-.399-2.185zm12.407 7.524h.893c1.387 0 2.451-.361 3.192-1.083.684-.646 1.102-1.653 1.102-2.679 0-1.159-.532-2.299-1.387-2.964-.817-.608-1.615-.798-3.553-.798h-2.166V17.65h1.919zm0-1.767v-3.99h.627c.988 0 1.558.133 2.014.456.437.323.703.893.703 1.501 0 .608-.247 1.178-.646 1.52-.437.361-1.007.513-1.995.513zm14.136-3.952V4.977h-6.992V17.65h6.992v-1.805h-5.073v-4.218h4.921V9.822h-4.921v-3.04zm6.802 5.472c1.691-.361 2.812-1.786 2.812-3.553 0-1.216-.589-2.356-1.52-2.983-.798-.532-1.71-.741-3.344-.741h-2.242V17.65h1.919v-5.187h.342l3.61 5.187h2.337zm-2.375-1.463V6.782h.684c.893 0 1.444.133 1.9.437.456.323.741.893.741 1.501 0 .665-.304 1.273-.798 1.615-.437.304-1.064.456-1.919.456zm15.352-3.933c-.855-1.482-1.9-2.128-3.42-2.128-2.166 0-3.8 1.444-3.8 3.363 0 1.425.836 2.47 2.603 3.211 1.71.722 1.71.722 2.147 1.007.57.399.874.95.874 1.672 0 1.216-.874 2.109-2.071 2.109-.779 0-1.501-.38-1.824-.988-.19-.323-.266-.627-.361-1.387l-1.938.437c.133.95.323 1.444.741 2.052.741 1.083 1.919 1.691 3.306 1.691 2.337 0 4.066-1.729 4.066-4.047 0-1.748-.912-2.888-2.964-3.743-1.672-.684-1.672-.684-2.033-.931-.418-.285-.608-.646-.608-1.064 0-.893.798-1.577 1.843-1.577.874 0 1.311.285 1.9 1.254zM70.54 4.73c-3.629 0-6.65 2.964-6.65 6.536 0 1.729.532 3.211 1.596 4.389 1.254 1.387 3.135 2.242 4.959 2.242 3.705 0 6.688-2.926 6.688-6.574 0-3.629-2.964-6.593-6.593-6.593zm-.019 1.805c2.66 0 4.693 2.09 4.693 4.788 0 2.679-2.071 4.769-4.75 4.769-1.159 0-2.356-.494-3.249-1.349-.95-.912-1.406-2.033-1.406-3.458 0-2.66 2.09-4.75 4.712-4.75zm15.333.247V4.977h-6.327V17.65h1.919v-6.023h4.256V9.822h-4.256v-3.04zm5.7 0h2.907V4.977h-7.733v1.805h2.907V17.65h1.919z"/></svg>