<svg width="94" height="34" xmlns="http://www.w3.org/2000/svg"><path d="M3.72 6.292h-1.8v10.296c0 1.752.288 2.808 1.056 3.792 1.032 1.368 2.808 2.208 4.656 2.208 1.824 0 3.576-.84 4.632-2.208.768-.984 1.056-2.064 1.056-3.792V6.292h-1.8v9.816c0 1.656-.12 2.376-.528 3.072-.624 1.008-1.992 1.728-3.36 1.728-1.392 0-2.76-.72-3.384-1.728-.408-.696-.528-1.416-.528-3.072zm18.528 7.632c-.624-1.224-1.512-1.8-2.736-1.8-1.656 0-2.904 1.2-2.904 2.784 0 1.32.576 1.896 2.88 2.904 1.248.528 1.608.888 1.608 1.656 0 .888-.696 1.56-1.632 1.56-.936 0-1.416-.408-1.992-1.608l-1.512.624c.648 1.68 1.824 2.544 3.48 2.544 1.944 0 3.408-1.392 3.408-3.24 0-.936-.384-1.656-1.104-2.184-.456-.336-.744-.48-1.896-.96-1.272-.528-1.608-.84-1.608-1.416 0-.6.552-1.104 1.2-1.104.6 0 1.032.312 1.392.984zm11.832 3.744v-.288c0-3.168-1.872-5.256-4.752-5.256-2.856 0-4.824 2.136-4.824 5.256 0 3.072 2.016 5.208 4.896 5.208 2.016 0 3.48-.888 4.584-2.832l-1.44-.816c-.96 1.536-1.752 2.088-3.072 2.088-1.8 0-3.072-1.32-3.168-3.36zm-7.656-1.44c.24-1.488 1.488-2.568 2.928-2.568 1.464 0 2.616 1.008 2.928 2.568zm23.712-3.168c-1.032-.672-1.92-.936-3.096-.936-3 0-5.304 2.28-5.304 5.256 0 2.928 2.304 5.208 5.28 5.208 1.152 0 1.968-.264 3.192-1.032V19.3c-1.128 1.272-1.992 1.728-3.24 1.728-1.968 0-3.48-1.584-3.48-3.672s1.512-3.672 3.528-3.672c1.2 0 2.016.432 3.12 1.632zm7.032-.936c-2.904 0-5.28 2.304-5.28 5.136 0 3 2.28 5.328 5.232 5.328 3 0 5.304-2.28 5.304-5.232 0-2.952-2.304-5.232-5.256-5.232zm-.024 1.56c2.04 0 3.528 1.536 3.528 3.672 0 2.16-1.488 3.672-3.552 3.672-2.04 0-3.48-1.56-3.48-3.72 0-2.064 1.488-3.624 3.504-3.624zm15.192-8.88v8.952c-.984-1.128-2.064-1.632-3.48-1.632-2.736 0-4.752 2.184-4.752 5.184 0 3.048 2.04 5.28 4.8 5.28 1.416 0 2.592-.576 3.408-1.656V22.3h1.728V4.804zm-3.192 8.88c.816 0 1.656.336 2.28.912.696.624 1.008 1.488 1.008 2.712 0 2.232-1.32 3.72-3.312 3.72-1.896 0-3.264-1.584-3.264-3.768 0-2.016 1.416-3.576 3.288-3.576zm16.824 3.984v-.288c0-3.168-1.872-5.256-4.752-5.256-2.856 0-4.824 2.136-4.824 5.256 0 3.072 2.016 5.208 4.896 5.208 2.016 0 3.48-.888 4.584-2.832l-1.44-.816c-.96 1.536-1.752 2.088-3.072 2.088-1.8 0-3.072-1.32-3.168-3.36zm-7.656-1.44c.24-1.488 1.488-2.568 2.928-2.568 1.464 0 2.616 1.008 2.928 2.568zm11.184 3.936c-.624 0-1.176.528-1.176 1.176 0 .672.528 1.2 1.2 1.2.648 0 1.176-.528 1.176-1.2 0-.648-.528-1.176-1.2-1.176zm0-8.04c-.648 0-1.176.528-1.176 1.152 0 .672.528 1.2 1.176 1.2.648 0 1.176-.528 1.176-1.176 0-.648-.528-1.176-1.176-1.176z"/></svg>