<svg width="155" height="35" xmlns="http://www.w3.org/2000/svg"><path d="M1.925 23.73H7.55c1.85 0 3.175-.4 4.15-1.275.95-.85 1.475-2.1 1.475-3.425 0-1.225-.45-2.4-1.2-3.15-.525-.55-1.05-.8-2.175-1.05.65-.4.925-.625 1.2-1 .375-.6.625-1.475.625-2.375 0-1.375-.575-2.675-1.5-3.4-.85-.675-2.15-1-4.075-1H1.925zm3.25-9.725V9.68h.975c1.625 0 2.475.725 2.475 2.15 0 1.45-.85 2.175-2.525 2.175zm0 7.1V16.48H6.4c1.35 0 1.875.1 2.45.475.625.375.975 1.05.975 1.85 0 1.55-1.05 2.3-3.25 2.3zm20.875-.9l1.425 3.525h3.475l-7-17.025H21.5L14.275 23.73h3.45l1.5-3.525zm-1.025-2.625h-4.75l2.425-6zm7.9 6.15h5.625c1.85 0 3.175-.4 4.15-1.275.95-.85 1.475-2.1 1.475-3.425 0-1.225-.45-2.4-1.2-3.15-.525-.55-1.05-.8-2.175-1.05.65-.4.925-.625 1.2-1 .375-.6.625-1.475.625-2.375 0-1.375-.575-2.675-1.5-3.4-.85-.675-2.15-1-4.075-1h-4.125zm3.25-9.725V9.68h.975c1.625 0 2.475.725 2.475 2.15 0 1.45-.85 2.175-2.525 2.175zm0 7.1V16.48H37.4c1.35 0 1.875.1 2.45.475.625.375.975 1.05.975 1.85 0 1.55-1.05 2.3-3.25 2.3zm14.7-5.025v7.65h3.25v-7.65l5.85-9.025H56.1l-3.525 5.8-3.6-5.8h-3.85zm10.875 7.65h5.625c1.85 0 3.175-.4 4.15-1.275.95-.85 1.475-2.1 1.475-3.425 0-1.225-.45-2.4-1.2-3.15-.525-.55-1.05-.8-2.175-1.05.65-.4.925-.625 1.2-1 .375-.6.625-1.475.625-2.375 0-1.375-.575-2.675-1.5-3.4-.85-.675-2.15-1-4.075-1H61.75zM65 14.005V9.68h.975c1.625 0 2.475.725 2.475 2.15 0 1.45-.85 2.175-2.525 2.175zm0 7.1V16.48h1.225c1.35 0 1.875.1 2.45.475.625.375.975 1.05.975 1.85 0 1.55-1.05 2.3-3.25 2.3zm14.25-14.05H76v10.2c0 1.95.375 3.325 1.225 4.45 1.15 1.5 3.2 2.4 5.475 2.4 2.275 0 4.325-.9 5.475-2.4.85-1.125 1.225-2.5 1.225-4.45v-10.2h-3.25v9.55c0 1.7-.1 2.25-.525 2.975-.55.95-1.675 1.55-2.925 1.55-1.25 0-2.375-.6-2.925-1.55-.425-.725-.525-1.275-.525-2.975zM92.325 23.73H95.6l1.675-10.275 4.425 10.5h.9l4.575-10.5 1.5 10.275h3.275l-2.775-16.975h-2.25l-4.725 10.9-4.55-10.9h-2.225zm25.85-6.175h2.1c1.975 0 3.325-.475 4.275-1.475.85-.925 1.35-2.275 1.35-3.725 0-1.6-.625-3.05-1.7-4.025-1.05-.925-2.225-1.275-4.4-1.275h-4.875V23.73h3.25zm0-2.825V9.88h1.125c1.2 0 1.9.15 2.4.525.525.4.85 1.125.85 1.925 0 1.6-1.025 2.4-3.05 2.4zm14.7 6.175l2.9-3.075c2.125-2.25 3.025-3.975 3.025-5.825 0-3.1-2.5-5.375-5.875-5.375s-5.625 2.175-5.85 5.625h3.475c.075-1.725.975-2.75 2.475-2.75 1.4 0 2.525 1.1 2.525 2.525 0 1.4-.8 2.675-3.825 6.125L126.8 23.73h12.125v-2.825zM147.65 6.63c-1.825 0-3.525.925-4.75 2.55-1.125 1.525-1.725 3.65-1.725 6.075 0 2.725.55 4.7 1.725 6.35 1.175 1.625 2.9 2.55 4.75 2.55 1.825 0 3.55-.95 4.725-2.55 1.15-1.625 1.725-3.65 1.725-6.225 0-2.575-.575-4.6-1.725-6.2-1.2-1.625-2.9-2.55-4.725-2.55zm0 2.875c1.875 0 3.2 2.45 3.2 5.875 0 3.45-1.325 5.9-3.2 5.9-1.9 0-3.225-2.45-3.225-5.975 0-3.35 1.35-5.8 3.225-5.8z" fill="#fff"/></svg>