<svg width="222" height="35" xmlns="http://www.w3.org/2000/svg"><path d="M35.563 23.73h5.624c1.85 0 3.175-.4 4.15-1.275.95-.85 1.475-2.1 1.475-3.425 0-1.225-.45-2.4-1.2-3.15-.525-.55-1.05-.8-2.175-1.05.65-.4.925-.625 1.2-1 .376-.6.626-1.475.626-2.375 0-1.375-.575-2.675-1.5-3.4-.85-.675-2.15-1-4.075-1h-4.126zm3.25-9.725V9.68h.974c1.626 0 2.476.725 2.476 2.15 0 1.45-.85 2.175-2.526 2.175zm0 7.1V16.48h1.224c1.35 0 1.876.1 2.45.475.625.375.975 1.05.975 1.85 0 1.55-1.05 2.3-3.25 2.3zm20.874-.9l1.425 3.525h3.476l-7-17.025h-2.45L47.913 23.73h3.45l1.5-3.525zm-1.024-2.625h-4.75l2.425-6zm7.9 6.15h5.624c1.85 0 3.175-.4 4.15-1.275.95-.85 1.475-2.1 1.475-3.425 0-1.225-.45-2.4-1.2-3.15-.524-.55-1.05-.8-2.174-1.05.65-.4.924-.625 1.2-1 .374-.6.624-1.475.624-2.375 0-1.375-.575-2.675-1.5-3.4-.85-.675-2.15-1-4.075-1h-4.124zm3.25-9.725V9.68h.974c1.625 0 2.475.725 2.475 2.15 0 1.45-.85 2.175-2.525 2.175zm0 7.1V16.48h1.224c1.35 0 1.875.1 2.45.475.626.375.976 1.05.976 1.85 0 1.55-1.05 2.3-3.25 2.3zm14.7-5.025v7.65h3.25v-7.65l5.85-9.025h-3.876l-3.524 5.8-3.6-5.8h-3.85zm10.874 7.65h5.626c1.85 0 3.174-.4 4.15-1.275.95-.85 1.475-2.1 1.475-3.425 0-1.225-.45-2.4-1.2-3.15-.526-.55-1.05-.8-2.175-1.05.65-.4.924-.625 1.2-1 .375-.6.625-1.475.625-2.375 0-1.375-.575-2.675-1.5-3.4-.85-.675-2.15-1-4.075-1h-4.126zm3.25-9.725V9.68h.975c1.626 0 2.476.725 2.476 2.15 0 1.45-.85 2.175-2.525 2.175zm0 7.1V16.48h1.225c1.35 0 1.876.1 2.45.475.626.375.975 1.05.975 1.85 0 1.55-1.05 2.3-3.25 2.3zm14.25-14.05h-3.25v10.2c0 1.95.376 3.325 1.225 4.45 1.15 1.5 3.2 2.4 5.476 2.4 2.275 0 4.325-.9 5.475-2.4.85-1.125 1.224-2.5 1.224-4.45v-10.2h-3.25v9.55c0 1.7-.1 2.25-.525 2.975-.55.95-1.674 1.55-2.924 1.55s-2.375-.6-2.925-1.55c-.425-.725-.525-1.275-.525-2.975zm13.076 16.675h3.275l1.674-10.275 4.425 10.5h.9l4.576-10.5 1.5 10.275h3.275l-2.775-16.975h-2.25l-4.725 10.9-4.55-10.9h-2.226zm25.85-6.175h2.1c1.974 0 3.325-.475 4.274-1.475.85-.925 1.35-2.275 1.35-3.725 0-1.6-.625-3.05-1.7-4.025-1.05-.925-2.224-1.275-4.4-1.275h-4.875V23.73h3.25zm0-2.825V9.88h1.125c1.2 0 1.9.15 2.4.525.525.4.85 1.125.85 1.925 0 1.6-1.025 2.4-3.05 2.4zm14.7 6.175l2.9-3.075c2.124-2.25 3.024-3.975 3.024-5.825 0-3.1-2.5-5.375-5.875-5.375s-5.625 2.175-5.85 5.625h3.476c.075-1.725.975-2.75 2.475-2.75 1.4 0 2.524 1.1 2.524 2.525 0 1.4-.8 2.675-3.825 6.125l-4.924 5.575h12.125v-2.825zM181.286 6.63c-1.825 0-3.525.925-4.75 2.55-1.125 1.525-1.725 3.65-1.725 6.075 0 2.725.55 4.7 1.725 6.35 1.175 1.625 2.9 2.55 4.75 2.55 1.826 0 3.55-.95 4.725-2.55 1.15-1.625 1.726-3.65 1.726-6.225 0-2.575-.576-4.6-1.726-6.2-1.2-1.625-2.9-2.55-4.725-2.55zm0 2.875c1.875 0 3.2 2.45 3.2 5.875 0 3.45-1.325 5.9-3.2 5.9-1.9 0-3.225-2.45-3.225-5.975 0-3.35 1.35-5.8 3.225-5.8z"/></svg>