<svg width="299" height="37" xmlns="http://www.w3.org/2000/svg"><path d="M5.217 14.057h2.738v-2.442H5.217v-5.55H2.59v5.55H.999v2.442H2.59V26.97h2.627zm5.217-14.06V26.97h2.627v-7.659c0-1.813.185-2.923.629-3.811.555-1.147 1.739-1.813 3.256-1.813 2.257 0 3.182 1.147 3.182 3.959v9.324h2.627v-9.509c0-1.998-.259-3.108-.888-4.07-.851-1.295-2.553-2.109-4.403-2.109-1.85 0-3.108.592-4.403 2.146V-.003zm30.747 19.832v-.444c0-4.884-2.886-8.103-7.326-8.103-4.403 0-7.437 3.293-7.437 8.103 0 4.736 3.108 8.029 7.548 8.029 3.108 0 5.365-1.369 7.067-4.366l-2.22-1.258c-1.48 2.368-2.701 3.219-4.736 3.219-2.775 0-4.736-2.035-4.884-5.18zm-11.803-2.22c.37-2.294 2.294-3.959 4.514-3.959 2.257 0 4.033 1.554 4.514 3.959zm18.056-5.994h-2.627V26.97h2.627zm-1.295-7.696c-1.036 0-1.887.851-1.887 1.85 0 1.073.851 1.924 1.887 1.924a1.895 1.895 0 0 0 1.887-1.887 1.895 1.895 0 0 0-1.887-1.887zm6.068 7.696V26.97h2.627v-8.103c0-1.85.185-2.96.592-3.7.444-.851 1.443-1.406 2.442-1.406.555 0 .888.111 1.554.518l1.221-2.368c-.925-.518-1.48-.666-2.331-.666-1.443 0-2.109.407-3.478 2.035v-1.665zm22.644 2.442h3.885v-2.442h-3.885v-5.92c0-2.775.444-3.515 2.109-3.515.592 0 .999.074 1.776.37V-.114c-.851-.259-1.258-.333-1.924-.333-1.591 0-2.886.555-3.7 1.628-.629.814-.888 2.035-.888 3.885v6.549h-1.443v2.442h1.443V26.97h2.627zm8.695-2.442h-2.627V26.97h2.627zm-1.295-7.696c-1.036 0-1.887.851-1.887 1.85 0 1.073.851 1.924 1.887 1.924a1.895 1.895 0 0 0 1.887-1.887 1.895 1.895 0 0 0-1.887-1.887zm6.068 7.696V26.97h2.627v-8.103c0-1.85.185-2.96.592-3.7.444-.851 1.443-1.406 2.442-1.406.555 0 .888.111 1.554.518l1.221-2.368c-.925-.518-1.48-.666-2.331-.666-1.443 0-2.109.407-3.478 2.035v-1.665zm18.981 2.442c-.962-1.887-2.331-2.775-4.218-2.775-2.553 0-4.477 1.85-4.477 4.292 0 2.035.888 2.923 4.44 4.477 1.924.814 2.479 1.369 2.479 2.553 0 1.369-1.073 2.405-2.516 2.405s-2.183-.629-3.071-2.479l-2.331.962c.999 2.59 2.812 3.922 5.365 3.922 2.997 0 5.254-2.146 5.254-4.995 0-1.443-.592-2.553-1.702-3.367-.703-.518-1.147-.74-2.923-1.48-1.961-.814-2.479-1.295-2.479-2.183 0-.925.851-1.702 1.85-1.702.925 0 1.591.481 2.146 1.517zm7.4 0h2.738v-2.442H114.7v-5.55h-2.627v5.55h-1.591v2.442h1.591V26.97h2.627zm17.316 0h3.885v-2.442h-3.885v-5.92c0-2.775.444-3.515 2.109-3.515.592 0 .999.074 1.776.37V-.114c-.851-.259-1.258-.333-1.924-.333-1.591 0-2.886.555-3.7 1.628-.629.814-.888 2.035-.888 3.885v6.549h-1.443v2.442h1.443V26.97h2.627zm17.723-2.442v2.183c-1.517-1.776-3.145-2.553-5.365-2.553-4.218 0-7.326 3.367-7.326 7.992 0 4.736 3.108 8.177 7.4 8.177 2.183 0 3.811-.814 5.291-2.59v2.146h2.627V11.615zm-4.921 2.035c2.997 0 5.106 2.294 5.106 5.624 0 3.367-2.109 5.735-5.143 5.735-2.923 0-5.032-2.442-5.032-5.809 0-3.145 2.183-5.55 5.069-5.55zm12.876-2.035h-2.96l7.548 16.391 7.511-16.391h-2.96l-4.551 10.323zm21.571-.333c-4.477 0-8.14 3.552-8.14 7.918 0 4.625 3.515 8.214 8.066 8.214 4.625 0 8.177-3.515 8.177-8.066s-3.552-8.066-8.103-8.066zm-.037 2.405c3.145 0 5.439 2.368 5.439 5.661 0 3.33-2.294 5.661-5.476 5.661-3.145 0-5.365-2.405-5.365-5.735 0-3.182 2.294-5.587 5.402-5.587zm11.766-2.072V26.97h2.627v-8.103c0-1.85.185-2.96.592-3.7.444-.851 1.443-1.406 2.442-1.406.555 0 .888.111 1.554.518l1.221-2.368c-.925-.518-1.48-.666-2.331-.666-1.443 0-2.109.407-3.478 2.035v-1.665zm13.172 0h-2.627V26.97h2.627zm-1.295-7.696c-1.036 0-1.887.851-1.887 1.85 0 1.073.851 1.924 1.887 1.924a1.895 1.895 0 0 0 1.887-1.887 1.895 1.895 0 0 0-1.887-1.887zm8.917 10.138h2.738v-2.442h-2.738v-5.55h-2.627v5.55h-1.591v2.442h1.591V26.97h2.627zm18.907 5.772v-.444c0-4.884-2.886-8.103-7.326-8.103-4.403 0-7.437 3.293-7.437 8.103 0 4.736 3.108 8.029 7.548 8.029 3.108 0 5.365-1.369 7.067-4.366l-2.22-1.258c-1.48 2.368-2.701 3.219-4.736 3.219-2.775 0-4.736-2.035-4.884-5.18zm-11.803-2.22c.37-2.294 2.294-3.959 4.514-3.959 2.257 0 4.033 1.554 4.514 3.959zm27.306 18.019V24.824c1.517 1.813 3.182 2.59 5.365 2.59 4.218 0 7.326-3.404 7.326-8.029 0-4.699-3.108-8.14-7.4-8.14-2.146 0-3.811.777-5.291 2.553v-2.183h-2.627v24.013zm4.958-21.978c2.923 0 5.032 2.442 5.032 5.809 0 3.145-2.183 5.55-5.032 5.55-2.997 0-5.143-2.331-5.143-5.624 0-3.367 2.146-5.735 5.143-5.735zm14.023-2.035h-2.627v24.013h2.627zm-1.295-7.696c-1.036 0-1.887.851-1.887 1.85 0 1.073.851 1.924 1.887 1.924a1.895 1.895 0 0 0 1.887-1.887 1.895 1.895 0 0 0-1.887-1.887zm7.696 8.288l.518-9.916h-2.997l.481 9.916zm12.839 1.85c-.962-1.887-2.331-2.775-4.218-2.775-2.553 0-4.477 1.85-4.477 4.292 0 2.035.888 2.923 4.44 4.477 1.924.814 2.479 1.369 2.479 2.553 0 1.369-1.073 2.405-2.516 2.405s-2.183-.629-3.071-2.479l-2.331.962c.999 2.59 2.812 3.922 5.365 3.922 2.997 0 5.254-2.146 5.254-4.995 0-1.443-.592-2.553-1.702-3.367-.703-.518-1.147-.74-2.923-1.48-1.961-.814-2.479-1.295-2.479-2.183 0-.925.851-1.702 1.85-1.702.925 0 1.591.481 2.146 1.517z"/></svg>